<svg height='100px' width='100px'  fill="#ef5777" xmlns="http://www.w3.org/2000/svg" xmlns:xlink="http://www.w3.org/1999/xlink" version="1.1" x="0px" y="0px" viewBox="0 0 100 100" enable-background="new 0 0 100 100" xml:space="preserve"><path d="M93.5,26.375c0,2.761-2.238,5-5,5h-77c-2.762,0-5-2.239-5-5v-4.667c0-2.761,2.238-5,5-5h77c2.762,0,5,2.239,5,5V26.375z"></path><path d="M78.5,52.333c0,2.762-2.238,5-5,5h-47c-2.762,0-5-2.238-5-5v-4.666c0-2.762,2.238-5,5-5h47c2.762,0,5,2.238,5,5V52.333z"></path><path d="M63.5,78.292c0,2.761-2.238,5-5,5h-17c-2.762,0-5-2.239-5-5v-4.667c0-2.761,2.238-5,5-5h17c2.762,0,5,2.239,5,5V78.292z"></path></svg>