<svg height='100px' width='100px'  fill="#ef5777" xmlns="http://www.w3.org/2000/svg" xmlns:xlink="http://www.w3.org/1999/xlink" version="1.1" x="0px" y="0px" viewBox="0 0 32 32" enable-background="new 0 0 32 32" xml:space="preserve"><g><path d="M30,1H10C9.4473,1,9,1.4478,9,2v6v14.0256C8.1617,21.391,7.1299,21,6,21c-2.7568,0-5,2.2432-5,5s2.2432,5,5,5s5-2.2432,5-5   V9h18v10.0256C28.1617,18.391,27.1299,18,26,18c-2.7568,0-5,2.2432-5,5s2.2432,5,5,5s5-2.2432,5-5V8V2C31,1.4478,30.5527,1,30,1z"></path></g></svg>