<svg height='100px' width='100px'  fill="#ef5777" xmlns="http://www.w3.org/2000/svg" xmlns:xlink="http://www.w3.org/1999/xlink" version="1.1" x="0px" y="0px" viewBox="0 0 500 500" enable-background="new 0 0 500 500" xml:space="preserve"><g><g><polygon points="134.9,212 250,76 365.1,212   "></polygon><g><path d="M142,218.7c13-15.3,25.9-30.6,38.9-45.9c20.7-24.4,41.3-48.8,62-73.2c4.8-5.6,9.5-11.2,14.3-16.9c-4.7,0-9.4,0-14.1,0     c13,15.3,25.9,30.6,38.9,45.9c20.7,24.4,41.3,48.8,62,73.2c4.8,5.6,9.5,11.2,14.3,16.9c2.4-5.7,4.7-11.4,7.1-17.1     c-25.9,0-51.9,0-77.8,0c-41.3,0-82.6,0-124,0c-9.5,0-19,0-28.4,0c-12.9,0-12.9,20,0,20c25.9,0,51.9,0,77.8,0c41.3,0,82.6,0,124,0     c9.5,0,19,0,28.4,0c9.2,0,12.5-10.7,7.1-17.1c-13-15.3-25.9-30.6-38.9-45.9c-20.7-24.4-41.3-48.8-62-73.2     c-4.8-5.6-9.5-11.2-14.3-16.9c-3.3-3.9-10.9-3.9-14.1,0c-13,15.3-25.9,30.6-38.9,45.9c-20.7,24.4-41.3,48.8-62,73.2     c-4.8,5.6-9.5,11.2-14.3,16.9c-3.5,4.1-4,10.1,0,14.1C131.4,222.3,138.5,222.9,142,218.7z"></path></g></g><g><polygon points="134.9,288 250,424 365.1,288   "></polygon><g><path d="M127.9,295.4c13,15.3,25.9,30.6,38.9,45.9c20.7,24.4,41.3,48.8,62,73.2c4.8,5.6,9.5,11.2,14.3,16.9     c3.3,3.9,10.9,3.9,14.1,0c13-15.3,25.9-30.6,38.9-45.9c20.7-24.4,41.3-48.8,62-73.2c4.8-5.6,9.5-11.2,14.3-16.9     c5.4-6.4,2.1-17.1-7.1-17.1c-25.9,0-51.9,0-77.8,0c-41.3,0-82.6,0-124,0c-9.5,0-19,0-28.4,0c-12.9,0-12.9,20,0,20     c25.9,0,51.9,0,77.8,0c41.3,0,82.6,0,124,0c9.5,0,19,0,28.4,0c-2.4-5.7-4.7-11.4-7.1-17.1c-13,15.3-25.9,30.6-38.9,45.9     c-20.7,24.4-41.3,48.8-62,73.2c-4.8,5.6-9.5,11.2-14.3,16.9c4.7,0,9.4,0,14.1,0c-13-15.3-25.9-30.6-38.9-45.9     c-20.7-24.4-41.3-48.8-62-73.2c-4.8-5.6-9.5-11.2-14.3-16.9c-3.5-4.1-10.5-3.6-14.1,0C123.8,285.3,124.4,291.3,127.9,295.4z"></path></g></g></g></svg>